<svg xmlns="http://www.w3.org/2000/svg" xmlns:xlink="http://www.w3.org/1999/xlink" width="50" zoomAndPan="magnify" viewBox="0 0 37.5 30.000001" height="40" preserveAspectRatio="xMidYMid meet" version="1.0"><defs><g/></defs><path fill="#000000" d="M 8.027344 8.011719 C 7.367188 8.1875 6.660156 8.5 6.199219 8.90625 C 5.703125 9.34375 5.492188 9.769531 5.457031 10.136719 C 5.417969 10.519531 5.5625 10.847656 5.785156 11.074219 C 6.667969 11.972656 8.140625 11.96875 9.332031 11.308594 C 10.070312 10.902344 10.644531 10.515625 11.09375 10.15625 C 10.96875 10.511719 10.78125 10.867188 10.527344 11.214844 C 9.511719 12.601562 8.09375 13.3125 6.757812 13.664062 C 4.738281 14.195312 2.90625 13.917969 2.90625 13.917969 C 2.84375 13.910156 2.785156 13.953125 2.773438 14.023438 C 2.765625 14.089844 2.808594 14.148438 2.875 14.160156 C 2.875 14.160156 4.75 14.445312 6.8125 13.898438 C 8.199219 13.535156 9.664062 12.796875 10.714844 11.363281 C 11.074219 10.875 11.300781 10.375 11.429688 9.875 C 11.683594 9.648438 11.886719 9.429688 12.042969 9.230469 C 12.25 8.964844 12.382812 8.722656 12.460938 8.511719 C 12.476562 8.503906 12.492188 8.496094 12.507812 8.488281 C 12.863281 8.324219 13.023438 7.945312 13.097656 7.457031 C 13.203125 6.804688 13.160156 5.949219 13.386719 5.273438 C 13.742188 4.203125 14.589844 3.792969 15.195312 3.933594 C 15.257812 3.949219 15.320312 3.910156 15.335938 3.84375 C 15.351562 3.777344 15.3125 3.710938 15.246094 3.699219 C 14.554688 3.535156 13.570312 3.976562 13.164062 5.191406 C 12.933594 5.882812 12.972656 6.753906 12.867188 7.417969 C 12.816406 7.746094 12.734375 8.023438 12.542969 8.183594 C 12.585938 7.835938 12.460938 7.601562 12.308594 7.5 C 12.230469 7.445312 12.140625 7.425781 12.058594 7.4375 C 11.710938 7.488281 11.605469 7.851562 11.707031 8.15625 C 11.769531 8.332031 11.898438 8.484375 12.082031 8.539062 C 12.113281 8.546875 12.148438 8.554688 12.1875 8.554688 C 12.113281 8.714844 12.007812 8.886719 11.859375 9.078125 C 11.761719 9.203125 11.644531 9.332031 11.511719 9.46875 C 11.640625 8.582031 11.472656 7.71875 11.160156 6.949219 C 10.628906 5.644531 9.683594 4.617188 9.128906 4.242188 C 8.277344 3.664062 7.570312 3.421875 7.039062 3.417969 C 6.65625 3.417969 6.363281 3.535156 6.15625 3.738281 C 5.949219 3.941406 5.832031 4.230469 5.824219 4.585938 C 5.808594 5.082031 6.003906 5.707031 6.449219 6.371094 C 6.882812 7.011719 7.472656 7.59375 8.027344 8.011719 Z M 11.21875 9.742188 C 11.4375 8.796875 11.273438 7.863281 10.941406 7.046875 C 10.433594 5.792969 9.53125 4.804688 9 4.445312 C 8.199219 3.902344 7.539062 3.664062 7.035156 3.664062 C 6.726562 3.660156 6.484375 3.75 6.316406 3.914062 C 6.152344 4.078125 6.066406 4.3125 6.058594 4.59375 C 6.042969 5.050781 6.230469 5.621094 6.644531 6.234375 C 7.101562 6.917969 7.75 7.535156 8.332031 7.941406 C 8.632812 7.878906 8.914062 7.847656 9.144531 7.855469 C 9.367188 7.863281 9.546875 7.90625 9.65625 7.980469 C 9.757812 8.046875 9.8125 8.132812 9.820312 8.246094 C 9.832031 8.398438 9.792969 8.507812 9.722656 8.582031 C 9.628906 8.679688 9.457031 8.714844 9.234375 8.664062 C 8.984375 8.609375 8.648438 8.441406 8.285156 8.199219 C 7.609375 8.351562 6.835938 8.667969 6.351562 9.09375 C 5.917969 9.476562 5.722656 9.839844 5.6875 10.160156 C 5.65625 10.464844 5.773438 10.71875 5.949219 10.898438 C 6.761719 11.730469 8.121094 11.703125 9.222656 11.09375 C 10.101562 10.609375 10.75 10.15625 11.21875 9.742188 Z M 8.628906 8.136719 C 8.875 8.285156 9.105469 8.386719 9.285156 8.425781 C 9.355469 8.445312 9.421875 8.449219 9.472656 8.445312 C 9.507812 8.4375 9.535156 8.429688 9.558594 8.410156 C 9.585938 8.378906 9.59375 8.328125 9.585938 8.265625 C 9.582031 8.214844 9.542969 8.1875 9.492188 8.164062 C 9.40625 8.121094 9.28125 8.105469 9.136719 8.097656 C 8.988281 8.09375 8.8125 8.109375 8.628906 8.136719 Z M 12.277344 8.308594 C 12.289062 8.261719 12.300781 8.214844 12.304688 8.171875 C 12.335938 7.964844 12.292969 7.8125 12.214844 7.730469 C 12.179688 7.691406 12.132812 7.671875 12.089844 7.679688 C 11.949219 7.699219 11.894531 7.832031 11.90625 7.960938 C 11.917969 8.09375 11.984375 8.230469 12.105469 8.289062 C 12.15625 8.3125 12.214844 8.320312 12.277344 8.308594 Z M 12.277344 8.308594 " fill-opacity="1" fill-rule="evenodd"/><g fill="#000000" fill-opacity="1"><g transform="translate(8.68166, 17.455117)"><g><path d="M 3.9375 -4.304688 C 3.539062 -4.414062 3.089844 -4.414062 2.613281 -4.355469 C 3.21875 -4.777344 3.726562 -5.359375 3.992188 -5.980469 C 4.355469 -6.863281 3.769531 -7.027344 3.007812 -6.148438 C 2.136719 -5.128906 1.347656 -3.21875 0.960938 -2.082031 C 0.933594 -2.0625 0.910156 -2.039062 0.890625 -2.027344 C 1.0625 -2.917969 1.878906 -5.632812 2.300781 -5.863281 C 2.304688 -5.863281 2.410156 -5.84375 2.449219 -5.960938 C 2.484375 -6.054688 2.382812 -6.109375 2.230469 -6 C 1.613281 -5.515625 0.769531 -2.714844 0.632812 -1.789062 C -0.191406 -0.953125 -0.136719 -0.128906 0.742188 0.0078125 C 1.429688 0.117188 2.578125 -0.128906 3.488281 -0.777344 C 5.117188 -1.925781 5.523438 -3.898438 3.9375 -4.304688 Z M 0.878906 -1.84375 C 0.863281 -1.808594 0.855469 -1.777344 0.84375 -1.742188 C 0.851562 -1.789062 0.851562 -1.777344 0.855469 -1.828125 C 0.863281 -1.835938 0.871094 -1.835938 0.878906 -1.84375 Z M 3.402344 -0.925781 C 2.585938 -0.355469 1.503906 -0.09375 0.835938 -0.191406 C 0.0664062 -0.292969 0.0390625 -0.910156 0.605469 -1.570312 C 0.597656 -1.476562 0.597656 -1.382812 0.613281 -1.300781 C 0.644531 -1.101562 0.835938 -1.066406 0.933594 -1.367188 C 1.007812 -1.605469 1.089844 -1.84375 1.171875 -2.089844 C 1.925781 -2.640625 2.824219 -2.945312 3.644531 -3.09375 C 3.769531 -3.117188 3.78125 -3.265625 3.679688 -3.246094 C 2.882812 -3.09375 1.992188 -2.804688 1.246094 -2.292969 C 1.625 -3.347656 2.339844 -5.128906 3.136719 -6.074219 C 3.761719 -6.808594 4.15625 -6.753906 3.835938 -5.988281 C 3.570312 -5.359375 2.9375 -4.660156 2.15625 -4.273438 C 2.039062 -4.210938 2.035156 -4.054688 2.148438 -4.074219 C 2.726562 -4.199219 3.332031 -4.238281 3.816406 -4.109375 C 5.25 -3.734375 4.878906 -1.960938 3.402344 -0.925781 Z M 3.402344 -0.925781 "/></g></g></g><g fill="#000000" fill-opacity="1"><g transform="translate(14.361463, 17.455117)"><g><path d="M 3.433594 -3.039062 C 3.414062 -3.054688 3.382812 -3.039062 3.359375 -3.015625 C 2.933594 -2.515625 2.199219 -1.699219 1.597656 -1.707031 C 0.9375 -1.707031 1.457031 -2.632812 1.476562 -2.960938 C 1.484375 -3.117188 1.359375 -3.128906 1.230469 -3 C 0.964844 -2.707031 0.597656 -1.699219 0.109375 -1.707031 C -0.285156 -1.714844 -0.199219 -2.375 0.183594 -2.972656 C 0.265625 -3.109375 0.0820312 -3.15625 0 -3.027344 C -0.332031 -2.488281 -0.542969 -1.496094 0.0195312 -1.496094 C 0.695312 -1.496094 1.089844 -2.644531 1.292969 -2.898438 C 1.328125 -2.9375 1.347656 -2.945312 1.332031 -2.878906 C 1.277344 -2.613281 0.640625 -1.515625 1.488281 -1.496094 C 2.183594 -1.484375 2.953125 -2.3125 3.441406 -2.972656 C 3.457031 -3 3.457031 -3.027344 3.433594 -3.039062 Z M 3.433594 -3.039062 "/></g></g></g><g fill="#000000" fill-opacity="1"><g transform="translate(17.701323, 17.455117)"><g><path d="M 1.679688 -3.015625 C 1.199219 -2.433594 0.617188 -1.644531 0.171875 -1.660156 C -0.414062 -1.695312 0.328125 -3.578125 0.59375 -4.171875 C 0.722656 -4.457031 1.199219 -5.449219 1.40625 -5.578125 C 1.523438 -5.59375 1.570312 -5.761719 1.460938 -5.761719 C 1.128906 -5.753906 0.550781 -4.523438 0.394531 -4.191406 C 0.0351562 -3.382812 -0.699219 -1.496094 0.101562 -1.484375 C 0.695312 -1.476562 1.3125 -2.382812 1.753906 -2.980469 C 1.789062 -3.035156 1.726562 -3.066406 1.679688 -3.015625 Z M -0.75 -4.734375 C -0.882812 -4.734375 -0.960938 -4.53125 -0.824219 -4.53125 L 3.722656 -4.585938 C 3.789062 -4.585938 3.828125 -4.6875 3.761719 -4.6875 Z M -0.75 -4.734375 "/></g></g></g><g fill="#000000" fill-opacity="1"><g transform="translate(19.327039, 17.455117)"><g><path d="M 1.679688 -3.015625 C 1.199219 -2.433594 0.617188 -1.644531 0.171875 -1.660156 C -0.414062 -1.695312 0.328125 -3.578125 0.59375 -4.171875 C 0.722656 -4.457031 1.199219 -5.449219 1.40625 -5.578125 C 1.523438 -5.59375 1.570312 -5.761719 1.460938 -5.761719 C 1.128906 -5.753906 0.550781 -4.523438 0.394531 -4.191406 C 0.0351562 -3.382812 -0.699219 -1.496094 0.101562 -1.484375 C 0.695312 -1.476562 1.3125 -2.382812 1.753906 -2.980469 C 1.789062 -3.035156 1.726562 -3.066406 1.679688 -3.015625 Z M -0.75 -4.734375 C -0.882812 -4.734375 -0.960938 -4.53125 -0.824219 -4.53125 L 3.722656 -4.585938 C 3.789062 -4.585938 3.828125 -4.6875 3.761719 -4.6875 Z M -0.75 -4.734375 "/></g></g></g><g fill="#000000" fill-opacity="1"><g transform="translate(20.952756, 17.455117)"><g><path d="M 2.164062 -3.019531 C 1.761719 -2.625 1.273438 -2.148438 0.789062 -1.890625 C 0.0625 -1.496094 -0.511719 -1.75 -0.128906 -2.566406 C 0.144531 -2.570312 0.457031 -2.632812 0.707031 -2.824219 C 1.136719 -3.144531 1.054688 -3.585938 0.640625 -3.46875 C 0.292969 -3.375 -0.136719 -3.007812 -0.347656 -2.46875 C -0.707031 -1.550781 -0.0273438 -1.246094 0.835938 -1.742188 C 1.359375 -2.035156 1.828125 -2.53125 2.230469 -2.972656 C 2.285156 -3.027344 2.21875 -3.074219 2.164062 -3.019531 Z M 0.625 -3.300781 C 0.855469 -3.355469 0.84375 -3.121094 0.617188 -2.960938 C 0.433594 -2.816406 0.183594 -2.777344 -0.0117188 -2.769531 C 0.183594 -3.066406 0.457031 -3.25 0.625 -3.300781 Z M 0.625 -3.300781 "/></g></g></g><g fill="#000000" fill-opacity="1"><g transform="translate(23.081832, 17.455117)"><g><path d="M 2.46875 -3.019531 C 2.15625 -2.707031 1.796875 -2.355469 1.441406 -2.089844 C 0.804688 -1.617188 0.171875 -1.515625 0.285156 -2.15625 C 0.328125 -2.359375 0.433594 -2.625 0.625 -2.917969 C 0.734375 -3.0625 0.699219 -3.121094 0.558594 -3.101562 C 0.488281 -3.089844 0.394531 -3.066406 0.300781 -3.0625 C 0.0898438 -3.046875 0.109375 -3.121094 0.25 -3.285156 C 0.375 -3.414062 0.199219 -3.484375 0.09375 -3.367188 C -0.175781 -3.039062 -0.144531 -2.835938 0.238281 -2.863281 C 0.304688 -2.871094 0.355469 -2.878906 0.40625 -2.882812 C 0.265625 -2.644531 0.148438 -2.382812 0.09375 -2.128906 C -0.0625 -1.300781 0.714844 -1.339844 1.523438 -1.972656 C 1.917969 -2.285156 2.238281 -2.640625 2.539062 -2.972656 C 2.59375 -3.027344 2.523438 -3.074219 2.46875 -3.019531 Z M 2.46875 -3.019531 "/></g></g></g><g fill="#000000" fill-opacity="1"><g transform="translate(25.496598, 17.455117)"><g><path d="M 1.980469 -3.007812 C 1.304688 -2.277344 0.347656 -1.890625 -0.332031 -1.863281 C -0.257812 -2.066406 -0.175781 -2.265625 -0.09375 -2.460938 C -0.0351562 -2.597656 0.0195312 -2.734375 0.0898438 -2.863281 C 0.550781 -3.144531 0.960938 -3.59375 1.199219 -4.015625 C 1.597656 -4.734375 1.109375 -4.753906 0.632812 -4.171875 C 0.265625 -3.714844 -0.0898438 -2.972656 -0.300781 -2.476562 C -0.652344 -1.652344 -1.027344 -0.550781 -1.136719 0.25 C -1.265625 1.367188 -0.558594 1.367188 -0.136719 -0.09375 C 0.0078125 -0.613281 0.148438 -1.40625 -0.136719 -1.734375 C 0.761719 -1.910156 1.511719 -2.367188 2.046875 -2.953125 C 2.101562 -3.015625 2.035156 -3.0625 1.980469 -3.007812 Z M 0.789062 -4.089844 C 1.066406 -4.441406 1.25 -4.503906 1.027344 -4.039062 C 0.863281 -3.699219 0.566406 -3.355469 0.210938 -3.128906 C 0.359375 -3.429688 0.570312 -3.816406 0.789062 -4.089844 Z M -0.300781 -0.0820312 C -0.605469 0.945312 -1.046875 1.246094 -0.910156 0.203125 C -0.835938 -0.375 -0.625 -1.0625 -0.414062 -1.652344 C 0.0078125 -1.53125 -0.148438 -0.566406 -0.300781 -0.0820312 Z M -0.300781 -0.0820312 "/></g></g></g><g fill="#000000" fill-opacity="1"><g transform="translate(27.428411, 17.455117)"><g><path d="M 1.980469 -3.039062 C 1.714844 -2.699219 1.347656 -2.265625 1.007812 -1.988281 C 0.339844 -1.449219 -0.203125 -1.644531 0.09375 -2.863281 C 0.183594 -2.917969 0.707031 -3.375 1.164062 -3.9375 C 2.933594 -6.15625 1.667969 -6.585938 0.429688 -4.238281 C 0.21875 -3.828125 0.0390625 -3.410156 -0.0742188 -2.992188 C -0.523438 -1.359375 0.304688 -1.191406 1.09375 -1.882812 C 1.449219 -2.199219 1.789062 -2.625 2.0625 -3 C 2.109375 -3.0625 2.027344 -3.101562 1.980469 -3.039062 Z M 0.617188 -4.210938 C 1.707031 -6.382812 2.597656 -5.890625 1.039062 -4.007812 C 0.78125 -3.695312 0.488281 -3.402344 0.175781 -3.144531 C 0.292969 -3.496094 0.441406 -3.855469 0.617188 -4.210938 Z M 0.617188 -4.210938 "/></g></g></g><g fill="#000000" fill-opacity="1"><g transform="translate(29.367027, 17.455117)"><g><path d="M 2.910156 -3.007812 C 2.210938 -2.632812 1.75 -2.3125 1.332031 -1.992188 C 1.40625 -2.25 1.515625 -2.699219 1.503906 -2.9375 C 1.484375 -3.144531 1.3125 -3.121094 1.199219 -3 C 0.945312 -2.726562 0.597656 -1.679688 0.121094 -1.679688 C -0.230469 -1.679688 -0.230469 -2.304688 0.191406 -2.972656 C 0.273438 -3.109375 0.0898438 -3.15625 0.0078125 -3.027344 C -0.347656 -2.46875 -0.585938 -1.511719 0.0625 -1.511719 C 0.695312 -1.511719 1.039062 -2.644531 1.257812 -2.917969 C 1.332031 -3.007812 1.359375 -2.960938 1.367188 -2.871094 C 1.375 -2.613281 1.222656 -2.117188 1.136719 -1.835938 C -2.617188 1.238281 -1.117188 3.578125 0.449219 0.3125 C 0.796875 -0.414062 1.074219 -1.121094 1.277344 -1.796875 C 1.804688 -2.230469 2.367188 -2.597656 2.953125 -2.925781 C 3.019531 -2.964844 3.007812 -3.054688 2.910156 -3.007812 Z M 0.265625 0.292969 C -1.121094 3.101562 -1.960938 1.054688 1.0625 -1.613281 C 0.871094 -1.054688 0.585938 -0.355469 0.265625 0.292969 Z M 0.265625 0.292969 "/></g></g></g></svg>